<?xml version="1.0" encoding="utf-8"?>
<!-- Generator: Adobe Illustrator 23.0.2, SVG Export Plug-In . SVG Version: 6.00 Build 0)  -->
<svg version="1.1" id="Ebene_1" xmlns="http://www.w3.org/2000/svg" viewBox="0 0 100 22" preserveAspectRatio="xMinYMin meet" >
<style type="text/css">
	.st0{fill:none;}
	.st1{fill:#EB5A00;}
</style>
<g id="dgppn">
	<path class="st1" d="M95.5,5.3c-1.3,0-2.5,0.4-3.4,1.7V5.6h-3V17h3.1v-6.3c0-1.7,1.1-2.6,2.4-2.6c1.4,0,2.2,0.9,2.2,2.6V17h3.1V9.7
		C100,7.1,98.1,5.3,95.5,5.3z M80.5,8.1c1.8,0,3,1.4,3,3.2s-1.1,3.2-3,3.2c-1.7,0-2.9-1.3-2.9-3.2S78.8,8.1,80.5,8.1z M81.1,5.3
		c-1.6,0-2.7,0.6-3.4,1.6V5.6h-3v16.2h3.1v-5.9c0.7,0.9,1.8,1.5,3.4,1.5c3.2,0,5.5-2.6,5.5-6S84.3,5.3,81.1,5.3z M66.1,8.1
		c1.8,0,3,1.4,3,3.2s-1.1,3.2-3,3.2c-1.7,0-2.9-1.3-2.9-3.2S64.3,8.1,66.1,8.1z M66.6,5.3c-1.6,0-2.7,0.6-3.4,1.6V5.6h-3v16.2h3.1
		v-5.9c0.7,0.9,1.8,1.5,3.4,1.5c3.2,0,5.5-2.6,5.5-6S69.8,5.3,66.6,5.3z M51.2,8.1c1.7,0,2.9,1.3,2.9,3c0,1.7-1.2,3-2.9,3
		c-1.8,0-2.9-1.3-2.9-3C48.3,9.4,49.4,8.1,51.2,8.1z M50.4,5.3c-2.8,0-5.3,2.3-5.3,5.8c0,3.5,2.5,5.8,5.3,5.8c1.6,0,2.7-0.6,3.5-1.5
		v0.8c0,2-1.3,3-3.3,3c-1.4,0-2.6-0.4-3.8-1.2l-1.1,2.5c1.3,0.9,3.2,1.4,5,1.4c3.8,0,6.2-2.2,6.2-5.9V5.6h-3v1.3
		C53.2,5.9,52,5.3,50.4,5.3z M36.7,8.1c1.8,0,3,1.3,3,3.2s-1.2,3.2-3,3.2c-1.8,0-3-1.4-3-3.2S34.9,8.1,36.7,8.1z M36.2,5.3
		c-3.2,0-5.5,2.6-5.5,6s2.4,6,5.5,6c1.6,0,2.7-0.6,3.4-1.6V17h3V0h-3.1v6.8C38.8,5.9,37.7,5.3,36.2,5.3z"/>
	<path class="st1" d="M0,0v21.7h21.7V6.6V0H0z M10,17v-3.3c-1.9,0-3.4-0.2-4.6-1.2C4.1,11.4,3.2,9,3.2,5.6H6C6,6,6,6.7,6,7.1
		c0,2,0.4,3.5,1.1,4.3c0.6,0.7,1.6,1,2.9,1l0-6.8h2.1l0,11.4H10z M17.2,11.3c-0.4,0.5-1,0.8-1.6,1c-0.7,0.3-1.4,0.4-2.1,0.4v-0.6
		c0.7-0.2,1.2-0.4,1.5-0.9c0.7-0.8,1-2,1.1-3.8h2.4C18.5,9.1,18.1,10.4,17.2,11.3z"/>
</g>
</svg>
