<svg xmlns="http://www.w3.org/2000/svg" class="gba-logo__image gba-logo__image--ia" viewBox="0 0 297.7 120.7" width="280" height="121" aria-labelledby="gba-logo__svg-title"><title id="gba-logo__svg-title">Gemeinsamer Bundesausschuss</title><path d="M101.7 53.9c-.8-.4-2.5-.9-4.3-.9-3.3 0-5.1 2.1-5.1 6 0 4.1 1.8 6 4.9 6 1.1 0 1.9-.1 2.6-.3v-3.4h-3.1v-2.4h6.1v7.7c-1 .4-3.2 1.2-6 1.2-4.9 0-7.7-3.2-7.7-8.5 0-5.5 3.3-8.8 8.2-8.8 2.1 0 3.9.5 4.6.8l-.2 2.6z"></path><path d="M115.6 62.2h-7c.1 2 1.2 2.8 3.2 2.8 1.3 0 2.7-.3 3.4-.6l.1 2.4c-.8.3-2.3.8-4.2.8-3.8 0-5.7-2.2-5.7-6.2 0-3.7 1.8-6.5 5.4-6.5 3.7 0 4.8 2.4 4.8 5.6.1.6 0 1.3 0 1.7zm-4.8-4.9c-1.4 0-2.2 1.1-2.2 2.9l4.1-.2v-.3c0-1.5-.6-2.4-1.9-2.4z"></path><path d="M131.1 67.3v-8c0-1.3-.5-1.8-1.6-1.8-.7 0-1.5.2-2 .5.1.4.1.8.1 1.3v8h-3v-7.9c0-1.5-.6-1.8-1.6-1.8-.6 0-1.4.2-1.8.4v9.3h-3V55.1h3v.7c.7-.5 1.9-.9 2.9-.9 1.2 0 2.1.3 2.7 1.1.8-.5 2.1-1.1 3.5-1.1 2.3 0 3.7 1.2 3.7 3.7v8.6h-2.9z"></path><path d="M146.9 62.2h-7c.1 2 1.2 2.8 3.2 2.8 1.3 0 2.7-.3 3.4-.6l.1 2.4c-.8.3-2.3.8-4.2.8-3.8 0-5.7-2.2-5.7-6.2 0-3.7 1.8-6.5 5.4-6.5 3.7 0 4.8 2.4 4.8 5.6.1.6.1 1.3 0 1.7zm-4.8-4.9c-1.4 0-2.2 1.1-2.2 2.9l4.1-.2v-.3c0-1.5-.5-2.4-1.9-2.4z"></path><path d="M151.4 53.2c-1.1 0-1.9-.5-1.9-1.8 0-1.4.8-1.8 1.8-1.8s1.8.4 1.8 1.8c0 1.2-.7 1.8-1.7 1.8zm1.4 14.1h-3V55.1h3v12.2z"></path><path d="M163.5 67.3v-7.9c0-1.3-.8-1.8-2-1.8-1 0-1.9.3-2.5.6v9.1h-3V55.1h3v.8c.8-.5 2.1-.9 3.3-.9 2.4 0 4.1 1.2 4.1 3.8v8.6h-2.9z"></path><path d="M176.8 57.9c-.5-.2-1.6-.6-2.9-.6-1.1 0-1.5.4-1.5 1.1 0 1.9 5.1 1 5.1 5.2 0 3-2.1 3.9-4.5 3.9-1.9 0-3.1-.4-3.6-.6l.1-2.7c.6.3 1.9.7 3.4.7 1.2 0 1.7-.4 1.7-1.2 0-2-5-1.1-5-5.2 0-2.5 1.9-3.7 4.3-3.7 1.8 0 2.9.4 3.3.5l-.4 2.6z"></path><path d="M188.8 64.1c0 1.8.4 3.3.4 3.3h-2.5c-.2 0-.2-.6-.3-1.1h-.1c-.5.6-1.8 1.4-3.5 1.4-2 0-3.4-1-3.4-3.6 0-3 3.1-3.6 5.5-3.6h.9V59c0-1.2-.9-1.4-1.9-1.4-1.5 0-2.9.3-3.6.7l-.1-2.6c.7-.3 2.3-.7 4.2-.7 2.3 0 4.4.8 4.4 3.6v5.5zm-3.8-1.8c-1.6 0-2.6.6-2.6 1.5 0 .8.4 1.3 1.3 1.3 1 0 1.8-.4 2.2-.7v-2c-.2 0-.5-.1-.9-.1z"></path><path d="M204.6 67.3v-8c0-1.3-.5-1.8-1.6-1.8-.7 0-1.5.2-2 .5.1.4.1.8.1 1.3v8h-3v-7.9c0-1.5-.6-1.8-1.6-1.8-.6 0-1.4.2-1.8.4v9.3h-3V55.1h3v.7c.7-.5 1.9-.9 2.9-.9 1.2 0 2.1.3 2.7 1.1.8-.5 2.1-1.1 3.5-1.1 2.3 0 3.7 1.2 3.7 3.7v8.6h-2.9z"></path><path d="M220.2 62.2h-7c.1 2 1.2 2.8 3.2 2.8 1.3 0 2.7-.3 3.4-.6l.1 2.4c-.8.3-2.3.8-4.2.8-3.8 0-5.7-2.2-5.7-6.2 0-3.7 1.8-6.5 5.4-6.5 3.7 0 4.8 2.4 4.8 5.6.1.6 0 1.3 0 1.7zm-4.8-4.9c-1.4 0-2.2 1.1-2.2 2.9l4.1-.2v-.3c0-1.5-.6-2.4-1.9-2.4z"></path><path d="M226.1 56.1c.6-.8 1.6-1.2 2.7-1.2.4 0 .8.1 1.1.1v2.8c-.3-.1-.9-.2-1.7-.2-1.3 0-2.2.5-2.2 1.6v8h-3V55.1h3l.1 1z"></path><path d="M97.8 81.6c1.9.7 2.7 2.4 2.7 4 0 3.3-2.3 4.5-5.7 4.5h-4.4V73.9h4.5c3.3 0 5.2 1.2 5.2 4.1-.1 1.8-1.2 3-2.3 3.6zm-5.8-.4h4.2c.8-.3 2.1-1.3 2.1-3.1 0-2.1-1.4-2.8-3.7-2.8H92v5.9zm0 7.5h2.7c2.5 0 4.1-.8 4.1-3.1 0-1.8-1-3.1-3.8-3.1h-3v6.2z"></path><path d="M105.1 78.5v8.1c0 1.7.9 2.4 2.4 2.4 1.4 0 2.6-.7 3.4-1.3v-9.1h1.6v9c0 1.7.4 2.6.4 2.6h-1.3c-.2 0-.5-.6-.5-1.3h-.1c-.8.7-2.1 1.5-3.9 1.5-2.3 0-3.7-1.1-3.7-3.6v-8.3h1.7z"></path><path d="M123.8 90.1V82c0-1.7-1.1-2.3-2.6-2.3-1.3 0-2.6.5-3.5 1v9.4H116V78.5h1.6v1c1-.6 2.5-1.2 3.9-1.2 2.3 0 3.9 1 3.9 3.5v8.4h-1.6z"></path><path d="M138.4 87.5V74.9c0-.7 0-1.4-.1-1.8l-1.6.1c.1.5.1 1.2.1 2v3.7c-.6-.3-1.6-.6-2.8-.6-3.4 0-5.6 2.1-5.6 6.1 0 3.6 1.9 6 4.9 6 1.9 0 3.2-.9 3.7-1.4h.1c.1.6.3 1.2.5 1.2h1.3c0-.1-.5-1-.5-2.7zm-1.6.2c-.5.5-1.7 1.2-3.2 1.2-2.2 0-3.5-1.8-3.5-4.6 0-3.1 1.6-4.7 3.9-4.7 1.4 0 2.4.4 2.8.7v7.4z"></path><path d="M150.5 84.7H143c.1 2.9 1.4 4.2 4 4.2 1.4 0 2.5-.3 3.1-.6v1.3c-.6.3-1.8.6-3.4.6-3.6 0-5.4-2-5.4-6 0-3.7 1.7-6.1 4.9-6.1s4.3 2.2 4.3 5c.1.7 0 1.3 0 1.6zm-4.3-5.1c-2 0-3.1 1.5-3.2 4l5.9-.1c0-.2.1-.4.1-.6 0-1.9-.8-3.3-2.8-3.3z"></path><path d="M159.4 80.1c-.4-.2-1.3-.5-2.7-.5-1.4 0-2.2.6-2.2 1.8 0 2.6 5.4 1.7 5.4 5.6 0 2.5-1.9 3.4-4.1 3.4-1.7 0-2.7-.4-3.1-.6v-1.5c.4.2 1.5.6 3 .6 1.4 0 2.5-.6 2.5-1.9 0-2.7-5.3-1.8-5.3-5.6 0-2.1 1.6-3.2 3.7-3.2 1.6 0 2.5.3 2.8.4v1.5z"></path><path d="M170.4 87.5v-6c0-2.7-2-3.2-3.8-3.2-1.8 0-3.1.3-3.7.6l.1 1.4c.7-.3 2-.6 3.5-.6 1.2 0 2.4.3 2.4 2v2.2h-1.4c-3 0-5.4.9-5.4 3.4 0 2.1 1.2 3.2 3.1 3.2 1.7 0 3.1-.9 3.8-1.6h.1v.1c0 .7.3 1.3.5 1.3h1.3c-.1-.2-.5-1.1-.5-2.8zm-1.6.1c-.5.4-1.8 1.3-3.3 1.3-1.2 0-1.9-.7-1.9-1.9 0-1.4 1.3-2.2 3.8-2.2.6 0 1.1 0 1.3.1l.1 2.7z"></path><path d="M192.1 80.1c-.4-.2-1.3-.5-2.7-.5-1.4 0-2.2.6-2.2 1.8 0 2.6 5.4 1.7 5.4 5.6 0 2.5-1.9 3.4-4.1 3.4-1.7 0-2.7-.4-3.1-.6v-1.5c.4.2 1.5.6 3 .6 1.4 0 2.5-.6 2.5-1.9 0-2.7-5.3-1.8-5.3-5.6 0-2.1 1.6-3.2 3.7-3.2 1.6 0 2.5.3 2.8.4v1.5z"></path><path d="M201.3 80.1c-.4-.2-1.3-.5-2.7-.5-1.4 0-2.2.6-2.2 1.8 0 2.6 5.4 1.7 5.4 5.6 0 2.5-1.9 3.4-4.1 3.4-1.7 0-2.7-.4-3.1-.6v-1.5c.4.2 1.5.6 3 .6 1.4 0 2.5-.6 2.5-1.9 0-2.7-5.3-1.8-5.3-5.6 0-2.1 1.6-3.2 3.7-3.2 1.6 0 2.5.3 2.8.4v1.5z"></path><path d="M212.4 80.1c-.6-.2-1.4-.5-2.8-.5-2.5 0-4 1.6-4 4.7 0 3.2 1.5 4.6 4 4.6 1.5 0 2.5-.4 3-.6v1.3c-.6.3-1.7.7-3.1.7-3.5 0-5.5-1.8-5.5-6 0-4 2.1-6.1 5.5-6.1 1.4 0 2.5.2 2.9.4v1.5z"></path><path d="M222.9 90.1V82c0-1.7-1.1-2.3-2.6-2.3-1.3 0-2.6.5-3.5 1v9.4h-1.6v-15c0-.9-.1-1.5-.1-2l1.6-.1c.1.4.1 1.1.1 1.8v4.6c1-.6 2.4-1.2 3.9-1.2 2.2 0 3.9 1 3.9 3.5v8.4h-1.7z"></path><path d="M246.2 80.1c-.4-.2-1.3-.5-2.7-.5-1.4 0-2.2.6-2.2 1.8 0 2.6 5.4 1.7 5.4 5.6 0 2.5-1.9 3.4-4.1 3.4-1.7 0-2.7-.4-3.1-.6v-1.5c.4.2 1.5.6 3 .6 1.4 0 2.5-.6 2.5-1.9 0-2.7-5.3-1.8-5.3-5.6 0-2.1 1.6-3.2 3.7-3.2 1.6 0 2.5.3 2.8.4v1.5z"></path><path d="M255.5 80.1c-.4-.2-1.3-.5-2.7-.5-1.4 0-2.2.6-2.2 1.8 0 2.6 5.4 1.7 5.4 5.6 0 2.5-1.9 3.4-4.1 3.4-1.7 0-2.7-.4-3.1-.6v-1.5c.4.2 1.5.6 3 .6 1.4 0 2.5-.6 2.5-1.9 0-2.7-5.3-1.8-5.3-5.6 0-2.1 1.6-3.2 3.7-3.2 1.6 0 2.5.3 2.8.4v1.5z"></path><path d="M175.1 78.5v8.1c0 1.7.9 2.4 2.4 2.4 1.4 0 2.6-.7 3.4-1.3v-9.1h1.6v9c0 1.7.4 2.6.4 2.6h-1.3c-.2 0-.5-.6-.5-1.3h-.1c-.8.7-2.1 1.5-3.9 1.5-2.3 0-3.7-1.1-3.7-3.6v-8.3h1.7z"></path><path d="M229.3 78.5v8.1c0 1.7.9 2.4 2.5 2.4 1.4 0 2.6-.7 3.4-1.3v-9.1h1.6v9c0 1.7.4 2.6.4 2.6h-1.3c-.2 0-.5-.6-.5-1.3-.8.7-2.1 1.5-3.9 1.5-2.3 0-3.7-1.1-3.7-3.6v-8.3h1.5z"></path><g fill="#878787"><path d="M92.1 104.3v16.1h-1.6v-16.1h1.6z"></path><path d="M103.6 120.4v-8c0-1.7-1-2.3-2.6-2.3-1.3 0-2.6.5-3.5 1v9.3h-1.6v-11.6h1.6v1c1-.6 2.5-1.1 3.8-1.1 2.2 0 3.9 1 3.9 3.5v8.3l-1.6-.1z"></path><path d="M116.4 120.4v-8c0-1.7-1-2.3-2.6-2.3-1.3 0-2.6.5-3.5 1v9.3h-1.6v-11.6h1.6v1c1-.6 2.5-1.1 3.8-1.1 2.2 0 3.9 1 3.9 3.5v8.3l-1.6-.1z"></path><path d="M126.2 120.6c-3.3 0-5.4-1.8-5.4-6 0-4.1 2.4-6 5.6-6 3.4 0 5.4 1.7 5.4 6-.1 4.2-2.3 6-5.6 6zm.1-10.6c-2.4 0-3.9 1.4-3.9 4.6 0 3.4 1.5 4.6 3.8 4.6 2.5 0 3.9-1.3 3.9-4.6s-1.3-4.6-3.8-4.6z"></path><path d="M139.1 120.4h-1.5l-4.6-11.6h1.8l3.6 9.7 3.8-9.7h1.7l-4.8 11.6z"></path><path d="M158.4 108.8h3.9l-.1 1.4h-3.8v6.6c0 1.5.5 2.4 2.1 2.4.9 0 1.6-.2 2-.3v1.3c-.4.1-1.2.4-2.3.4-2.5 0-3.4-1.3-3.4-3.5v-6.9h-1.5v-1.3c1.1 0 1.4-.1 1.6-.3.2-.2.2-.6.3-2.1h1.3l-.1 2.3z"></path><path d="M165.4 106.4c-.6 0-1.1-.3-1.1-1.1s.5-1.1 1.1-1.1c.6 0 1.1.3 1.1 1.1 0 .7-.5 1.1-1.1 1.1zm.8 14h-1.6v-11.6h1.6v11.6z"></path><path d="M174.5 120.6c-3.3 0-5.4-1.8-5.4-6 0-4.1 2.4-6 5.6-6 3.4 0 5.4 1.7 5.4 6 0 4.2-2.3 6-5.6 6zm.1-10.6c-2.4 0-3.9 1.4-3.9 4.6 0 3.4 1.5 4.6 3.8 4.6 2.5 0 3.9-1.3 3.9-4.6s-1.3-4.6-3.8-4.6z"></path><path d="M190.7 120.4v-8c0-1.7-1-2.3-2.6-2.3-1.3 0-2.6.5-3.5 1v9.3H183v-11.6h1.6v1c1-.6 2.5-1.1 3.8-1.1 2.2 0 3.9 1 3.9 3.5v8.3l-1.6-.1z"></path><path d="M201.6 110.4c-.4-.2-1.3-.5-2.6-.5-1.4 0-2.2.6-2.2 1.7 0 2.5 5.3 1.7 5.3 5.6 0 2.5-1.9 3.4-4.1 3.4-1.6 0-2.6-.4-3-.5v-1.5c.4.2 1.5.6 3 .6 1.4 0 2.5-.5 2.5-1.9 0-2.7-5.3-1.8-5.3-5.6 0-2.1 1.6-3.2 3.7-3.2 1.5 0 2.5.3 2.8.4l-.1 1.5z"></path><path d="M234 110.4c-.4-.2-1.3-.5-2.6-.5-1.4 0-2.2.6-2.2 1.7 0 2.5 5.3 1.7 5.3 5.6 0 2.5-1.9 3.4-4 3.4-1.6 0-2.6-.4-3-.5v-1.5c.4.2 1.5.6 3 .6 1.4 0 2.5-.5 2.5-1.9 0-2.7-5.3-1.8-5.3-5.6 0-2.1 1.6-3.2 3.7-3.2 1.5 0 2.5.3 2.8.4l-.2 1.5z"></path><path d="M243.2 110.4c-.4-.2-1.3-.5-2.6-.5-1.4 0-2.2.6-2.2 1.7 0 2.5 5.3 1.7 5.3 5.6 0 2.5-1.9 3.4-4 3.4-1.6 0-2.6-.4-3-.5v-1.5c.4.2 1.5.6 3 .6 1.4 0 2.5-.5 2.5-1.9 0-2.7-5.3-1.8-5.3-5.6 0-2.1 1.6-3.2 3.7-3.2 1.5 0 2.5.3 2.8.4l-.2 1.5z"></path><path d="M254.2 110.4c-.5-.2-1.4-.5-2.8-.5-2.5 0-4 1.6-4 4.6 0 3.2 1.5 4.6 3.9 4.6 1.5 0 2.5-.4 2.9-.6v1.3c-.6.3-1.7.7-3.1.7-3.5 0-5.4-1.8-5.4-5.9 0-4 2-6.1 5.5-6.1 1.4 0 2.5.2 2.9.4l.1 1.5z"></path><path d="M264.6 120.4v-8c0-1.7-1.1-2.3-2.6-2.3-1.3 0-2.6.5-3.5 1v9.3h-1.6v-14.9c0-.9 0-1.5-.1-2l1.5-.1c.1.4.1 1.1.1 1.8v4.6c1-.6 2.4-1.1 3.8-1.1 2.2 0 3.8 1 3.8 3.4v8.3h-1.4z"></path><path d="M288 110.4c-.4-.2-1.3-.5-2.6-.5-1.4 0-2.2.6-2.2 1.7 0 2.5 5.3 1.7 5.3 5.6 0 2.5-1.9 3.4-4 3.4-1.6 0-2.6-.4-3-.5v-1.5c.4.2 1.5.6 3 .6 1.4 0 2.5-.5 2.5-1.9 0-2.7-5.3-1.8-5.3-5.6 0-2.1 1.6-3.2 3.7-3.2 1.5 0 2.5.3 2.8.4l-.2 1.5z"></path><path d="M297.2 110.4c-.4-.2-1.3-.5-2.6-.5-1.4 0-2.2.6-2.2 1.7 0 2.5 5.3 1.7 5.3 5.6 0 2.5-1.9 3.4-4 3.4-1.6 0-2.6-.4-3-.5v-1.5c.4.2 1.5.6 3 .6 1.4 0 2.5-.5 2.5-1.9 0-2.7-5.3-1.8-5.3-5.6 0-2.1 1.6-3.2 3.7-3.2 1.5 0 2.5.3 2.8.4l-.2 1.5z"></path><path d="M153.3 117.9v-6c0-2.7-2-3.2-3.8-3.2-1.8 0-3.1.3-3.7.6l.1 1.4c.7-.3 2-.6 3.5-.6 1.2 0 2.4.3 2.4 2v2.2h-1.4c-3 0-5.4.9-5.4 3.4 0 2.1 1.2 3.2 3.1 3.2 1.7 0 3.1-.9 3.8-1.6h.1v.1c0 .7.3 1.3.5 1.3h1.3c-.1-.2-.5-1.1-.5-2.8zm-1.6.1c-.5.4-1.8 1.3-3.3 1.3-1.2 0-1.9-.7-1.9-1.9 0-1.4 1.3-2.2 3.8-2.2.6 0 1.1 0 1.3.1l.1 2.7z"></path><path d="M212.4 117.9v-6c0-2.7-2-3.2-3.8-3.2-1.8 0-3.1.3-3.7.6l.1 1.4c.7-.3 2-.6 3.5-.6 1.2 0 2.4.3 2.4 2v2.2h-1.4c-3 0-5.4.9-5.4 3.4 0 2.1 1.2 3.2 3.1 3.2 1.7 0 3.1-.9 3.8-1.6h.1v.1c0 .7.3 1.3.5 1.3h1.3c-.1-.2-.5-1.1-.5-2.8zm-1.6.1c-.5.4-1.8 1.3-3.3 1.3-1.2 0-1.9-.7-1.9-1.9 0-1.4 1.3-2.2 3.8-2.2.6 0 1.1 0 1.3.1l.1 2.7z"></path><path d="M217.2 108.8v8.1c0 1.7.9 2.4 2.4 2.4 1.4 0 2.6-.7 3.4-1.3v-9.1h1.6v9c0 1.7.4 2.6.4 2.6h-1.3c-.2 0-.5-.6-.5-1.3h-.1c-.8.7-2.1 1.5-3.9 1.5-2.3 0-3.7-1.1-3.7-3.6v-8.3h1.7z"></path><path d="M271.2 108.8v8.1c0 1.7.9 2.4 2.5 2.4 1.4 0 2.6-.7 3.4-1.3v-9.1h1.6v9c0 1.7.4 2.6.4 2.6h-1.3c-.2 0-.5-.6-.5-1.3-.8.7-2.1 1.5-3.9 1.5-2.3 0-3.7-1.1-3.7-3.6v-8.3h1.5z"></path></g><g><g fill="#FF8C00"><path d="M40.5 20v9.2c0 3.6-5.4 3.6-5.4 0V20c0-3.6 5.4-3.6 5.4 0"></path><path d="M31.4 20.5l2.4 8.8c.9 3.5-4.3 4.9-5.2 1.4l-2.4-8.8c-1-3.5 4.2-4.9 5.2-1.4"></path><path d="M8.8 35.3l7.9 4.6c3.1 1.8.4 6.5-2.7 4.7l-8-4.7c-3.1-1.8-.4-6.5 2.8-4.6"></path><path d="M4.6 43.4l8.8 2.4c3.5.9 2.1 6.2-1.4 5.2l-8.8-2.4c-3.5-.9-2.1-6.1 1.4-5.2"></path><path d="M2.7 52.4h9.2c3.6 0 3.6 5.4 0 5.4H2.7c-3.6 0-3.6-5.4 0-5.4"></path><path d="M3.2 61.6l8.8-2.4c3.5-.9 4.9 4.3 1.4 5.2l-8.8 2.4c-3.5 1-4.9-4.2-1.4-5.2"></path><path d="M6.1 70.3l7.9-4.6c3.1-1.8 5.8 2.9 2.7 4.7L8.8 75c-3.1 1.8-5.9-2.9-2.7-4.7"></path><path d="M11.1 78l6.5-6.5c2.6-2.6 6.4 1.3 3.8 3.8l-6.5 6.5c-2.5 2.6-6.4-1.2-3.8-3.8"></path><path d="M17.9 84.2l4.6-7.9c1.8-3.1 6.5-.4 4.7 2.7l-4.6 7.9c-1.8 3.1-6.5.4-4.7-2.7"></path><path d="M26.1 88.4l2.4-8.8c.9-3.5 6.2-2.1 5.2 1.4l-2.4 8.8c-.9 3.4-6.1 2-5.2-1.4"></path><path d="M35.1 90.3v-9.2c0-3.6 5.4-3.6 5.4 0v9.2c0 3.6-5.4 3.6-5.4 0"></path><path d="M44.3 89.8L42 80.9c-.9-3.5 4.3-4.9 5.2-1.4l2.4 8.8c.9 3.5-4.3 4.9-5.3 1.5"></path><path d="M53 86.9L48.5 79c-1.8-3.1 2.9-5.8 4.7-2.7l4.6 7.9c1.7 3.1-3 5.8-4.8 2.7"></path><path d="M60.8 81.9l-6.5-6.5c-2.6-2.6 1.3-6.4 3.8-3.8l6.5 6.5c2.5 2.5-1.3 6.3-3.8 3.8"></path><path d="M66.9 75L59 70.5c-3.1-1.8-.4-6.5 2.7-4.7l7.9 4.6c3.1 1.7.4 6.4-2.7 4.6"></path><path d="M71.1 66.9l-8.8-2.4c-3.5-.9-2.1-6.2 1.4-5.2l8.8 2.4c3.5.9 2 6.1-1.4 5.2"></path><path d="M73 57.8h-9.2c-3.6 0-3.6-5.4 0-5.4H73c3.6 0 3.6 5.4 0 5.4"></path><path d="M72.5 48.7L63.6 51c-3.5.9-4.9-4.3-1.4-5.2l8.8-2.4c3.6-.9 5 4.3 1.5 5.3"></path><path d="M69.6 39.9l-7.9 4.6c-3.1 1.8-5.8-2.9-2.7-4.7l7.9-4.6c3.1-1.8 5.8 2.9 2.7 4.7"></path><path d="M64.6 32.2l-6.5 6.5c-2.6 2.6-6.4-1.3-3.8-3.8l6.5-6.5c2.5-2.6 6.3 1.3 3.8 3.8"></path><path d="M57.7 26.1L53.2 34c-1.8 3.1-6.5.4-4.7-2.7l4.6-7.9c1.7-3.1 6.4-.4 4.6 2.7"></path><path d="M49.6 21.9l-2.4 8.8c-.9 3.5-6.2 2.1-5.2-1.4l2.4-8.8c.9-3.5 6.1-2.1 5.2 1.4"></path><path d="M9.3 22.8l6.5 6.5c2.6 2.6-1.3 6.4-3.8 3.8l-6.5-6.5c-2.6-2.5 1.3-6.3 3.8-3.8"></path><path d="M9.7 1.4l4.6 7.9c1.8 3.1-2.9 5.8-4.7 2.7L5.1 4.1C3.3 1 7.9-1.7 9.7 1.4"></path></g></g></svg>